<svg xmlns="http://www.w3.org/2000/svg" version="1.1" xmlns:xlink="http://www.w3.org/1999/xlink" xmlns:svgjs="http://svgjs.com/svgjs" width="1440" height="720" preserveAspectRatio="none" viewBox="0 0 1440 720"><g mask="url(&quot;#SvgjsMask1007&quot;)" fill="none"><rect width="1440" height="720" x="0" y="0" fill="rgba(0, 87, 183, 1)"></rect><path d="M0,549.998C102.976,567.054,201.631,506.735,290.982,452.777C382.357,397.597,482.053,337.128,518.586,236.83C554.484,138.277,506.637,32.559,481.102,-69.172C458.092,-160.842,437.844,-254.351,377.118,-326.775C315.819,-399.882,227.258,-438.021,139.822,-476.191C40.789,-519.424,-66.07,-605.956,-165.505,-563.657C-267.151,-520.418,-253.409,-365.638,-322.559,-279.499C-387.692,-198.363,-519.688,-177.869,-554.043,-79.659C-589.18,20.787,-562.222,141.95,-500.246,228.454C-441.072,311.047,-320.465,310.722,-234.995,365.659C-149.516,420.602,-100.248,533.394,0,549.998" fill="#004692"></path><path d="M1440 1323.409C1551.9279999999999 1325.645 1652.952 1256.368 1737.6770000000001 1183.194 1814.987 1116.424 1847.849 1018.254 1897.0059999999999 928.707 1950.606 831.068 2061.013 743.078 2039.25 633.841 2017.325 523.794 1860.135 503.869 1794.267 413.026 1718.45 308.462 1740.33 138.76599999999996 1630.731 70.42899999999997 1520.886 1.9389999999999645 1365.11 14.099000000000046 1250.269 73.83399999999995 1139.667 131.36400000000003 1122.196 279.719 1043.1019999999999 376.086 967.017 468.78700000000003 816.992 509.334 795.927 627.396 774.904 745.224 875.818 847.519 941.087 947.846 997.845 1035.091 1066.713 1108.856 1149.8690000000001 1171.453 1238.894 1238.4679999999998 1328.593 1321.184 1440 1323.409" fill="#0068dc"></path></g><defs><mask id="SvgjsMask1007"><rect width="1440" height="720" fill="#ffffff"></rect></mask></defs></svg>