<svg xmlns="http://www.w3.org/2000/svg" version="1.1" xmlns:xlink="http://www.w3.org/1999/xlink" xmlns:svgjs="http://svgjs.com/svgjs" width="1440" height="560" preserveAspectRatio="none" viewBox="0 0 1440 560"><g mask="url(&quot;#SvgjsMask1007&quot;)" fill="none"><rect width="1440" height="560" x="0" y="0" fill="rgba(255, 215, 0, 1)"></rect><path d="M0 0L291.44 0L0 53.4z" fill="rgba(255, 255, 255, .1)"></path><path d="M0 53.4L291.44 0L428.53 0L0 334.78z" fill="rgba(255, 255, 255, .075)"></path><path d="M0 334.78L428.53 0L562.14 0L0 461.15999999999997z" fill="rgba(255, 255, 255, .05)"></path><path d="M0 461.15999999999997L562.14 0L563.35 0L0 466.83z" fill="rgba(255, 255, 255, .025)"></path><path d="M1440 560L900.32 560L1440 474.67z" fill="rgba(0, 0, 0, .1)"></path><path d="M1440 474.67L900.32 560L673.82 560L1440 341.38z" fill="rgba(0, 0, 0, .075)"></path><path d="M1440 341.38L673.82 560L424.94000000000005 560L1440 185.15z" fill="rgba(0, 0, 0, .05)"></path><path d="M1440 185.14999999999998L424.94000000000005 560L181.88000000000005 560L1440 178.07999999999998z" fill="rgba(0, 0, 0, .025)"></path></g><defs><mask id="SvgjsMask1007"><rect width="1440" height="560" fill="#ffffff"></rect></mask></defs></svg>